HIERARCHY
ROOT Hips
{
	OFFSET 0.000000 0.000000 0.000000
	CHANNELS 6 Xposition Yposition Zposition Zrotation Yrotation Xrotation 
	JOINT LHipJoint
	{
		OFFSET 0.000000 0.000000 0.000000
		CHANNELS 3 Zrotation Yrotation Xrotation
		JOINT LeftUpLeg
		{
			OFFSET 1.363060 -1.794630 0.839290
			CHANNELS 3 Zrotation Yrotation Xrotation
			JOINT LeftLeg
			{
				OFFSET 2.448110 -6.726130 0.000000
				CHANNELS 3 Zrotation Yrotation Xrotation
				JOINT LeftFoot
				{
					OFFSET 2.562200 -7.039590 0.000000
					CHANNELS 3 Zrotation Yrotation Xrotation
					JOINT LeftToeBase
					{
						OFFSET 0.157640 -0.433110 2.322550
						CHANNELS 3 Zrotation Yrotation Xrotation
						End Site
						{
							OFFSET 0.000000 0.000000 0.000000
						}
					}
				}
			}
		}
	}
	JOINT RHipJoint
	{
		OFFSET 0.000000 0.000000 0.000000
		CHANNELS 3 Zrotation Yrotation Xrotation
		JOINT RightUpLeg
		{
			OFFSET -1.305520 -1.794630 0.839290
			CHANNELS 3 Zrotation Yrotation Xrotation
			JOINT RightLeg
			{
				OFFSET -2.542530 -6.985550 0.000000
				CHANNELS 3 Zrotation Yrotation Xrotation
				JOINT RightFoot
				{
					OFFSET -2.568260 -7.056230 0.000000
					CHANNELS 3 Zrotation Yrotation Xrotation
					JOINT RightToeBase
					{
						OFFSET -0.164730 -0.452590 2.363150
						CHANNELS 3 Zrotation Yrotation Xrotation
						End Site
						{
							OFFSET 0.000000 0.000000 0.000000
						}
					}
				}
			}
		}
	}
	JOINT LowerBack
	{
		OFFSET 0.000000 0.000000 0.000000
		CHANNELS 3 Zrotation Yrotation Xrotation
		JOINT Spine
		{
			OFFSET 0.028270 2.035590 -0.193380
			CHANNELS 3 Zrotation Yrotation Xrotation
			JOINT Spine1
			{
				OFFSET 0.056720 2.048850 -0.042750
				CHANNELS 3 Zrotation Yrotation Xrotation
				JOINT Neck
				{
					OFFSET 0.000000 0.000000 0.000000
					CHANNELS 3 Zrotation Yrotation Xrotation
					JOINT Neck1
					{
						OFFSET -0.054170 1.746240 0.172020
						CHANNELS 3 Zrotation Yrotation Xrotation
						JOINT Head
						{
							OFFSET 0.104070 1.761360 -0.123970
							CHANNELS 3 Zrotation Yrotation Xrotation
							End Site
							{
								OFFSET 0.000000 0.000000 0.000000
							}
						}
					}
				}
				JOINT LeftShoulder
				{
					OFFSET 0.000000 0.000000 0.000000
					CHANNELS 3 Zrotation Yrotation Xrotation
					JOINT LeftArm
					{
						OFFSET 3.362410 1.200890 -0.311210
						CHANNELS 3 Zrotation Yrotation Xrotation
						JOINT LeftForeArm
						{
							OFFSET 4.983000 -0.000000 -0.000000
							CHANNELS 3 Zrotation Yrotation Xrotation
							JOINT LeftHand
							{
								OFFSET 3.483560 -0.000000 -0.000000
								CHANNELS 3 Zrotation Yrotation Xrotation
								JOINT LeftFingerBase
								{
									OFFSET 0.000000 0.000000 0.000000
									CHANNELS 3 Zrotation Yrotation Xrotation
									JOINT LeftHandIndex1
									{
										OFFSET 0.715260 -0.000000 -0.000000
										CHANNELS 3 Zrotation Yrotation Xrotation
										End Site
										{
											OFFSET 0.000000 0.000000 0.000000
										}
									}
								}
								JOINT LThumb
								{
									OFFSET 0.000000 0.000000 0.000000
									CHANNELS 3 Zrotation Yrotation Xrotation
									End Site
									{
										OFFSET 0.000000 0.000000 0.000000
									}
								}
							}
						}
					}
				}
				JOINT RightShoulder
				{
					OFFSET 0.000000 0.000000 0.000000
					CHANNELS 3 Zrotation Yrotation Xrotation
					JOINT RightArm
					{
						OFFSET -3.136600 1.374050 -0.404650
						CHANNELS 3 Zrotation Yrotation Xrotation
						JOINT RightForeArm
						{
							OFFSET -5.241900 -0.000000 -0.000000
							CHANNELS 3 Zrotation Yrotation Xrotation
							JOINT RightHand
							{
								OFFSET -3.444170 -0.000000 -0.000000
								CHANNELS 3 Zrotation Yrotation Xrotation
								JOINT RightFingerBase
								{
									OFFSET 0.000000 0.000000 0.000000
									CHANNELS 3 Zrotation Yrotation Xrotation
									JOINT RightHandIndex1
									{
										OFFSET -0.622530 -0.000000 -0.000000
										CHANNELS 3 Zrotation Yrotation Xrotation
										End Site
										{
											OFFSET 0.000000 0.000000 0.000000
										}
									}
								}
								JOINT RThumb
								{
									OFFSET 0.000000 0.000000 0.000000
									CHANNELS 3 Zrotation Yrotation Xrotation
									End Site
									{
										OFFSET 0.000000 0.000000 0.000000
									}
								}
							}
						}
					}
				}
			}
		}
	}
}
MOTION
Frames: 4
Frame Time: 0.008333
-1.441100 17.974751 -5.345624 -4.349761 2.940540 9.879306 -1.239608 0.669883 0.846767 -10.751031 -1.527927 -14.878654 0.402751 7.398946 22.105990 -0.050386 1.429200 -5.437992 0.156000 2.545300 7.015200 3.247450 0.666281 0.296688 24.760487 4.416004 -12.714767 -1.612237 -7.405406 20.268465 0.005668 -2.706290 -8.267223 -0.151700 -2.510100 6.917700 -0.886083 0.922507 -4.841631 3.586445 1.485989 -1.182609 3.081012 0.881607 -0.840835 4.807144 1.285342 -19.605934 -3.873844 1.820190 24.911056 -3.169200 0.872300 13.133600 -0.522709 4.745244 -1.162216 -80.463698 5.152113 68.563564 82.227078 -62.546285 -52.699690 0.016794 0.979210 -12.701319 4.848618 31.846336 2.374300 -7.125000 0.000000 0.000000 -30.011900 58.342100 -10.395300 0.832396 -4.321420 -1.604822 77.438408 -7.951578 63.622102 -99.306693 61.244182 -65.108564 0.117184 -0.521101 -18.603754 -10.159211 15.564267 -2.830600 7.125000 0.000000 0.000000 11.773100 -13.874400 8.797900 
-1.430028 17.978112 -5.348986 -4.389625 2.791617 9.923232 -1.242398 0.665290 0.842368 -10.782651 -1.332733 -14.981303 0.407644 7.408036 22.127945 -0.043435 1.386338 -5.457073 0.175600 2.699100 7.442100 3.240489 0.666226 0.291138 24.745315 4.415308 -12.764472 -1.612328 -7.397687 20.251821 0.000659 -2.619495 -8.150207 -0.139600 -2.407800 6.634000 -0.806604 0.987157 -4.797848 3.519034 1.566010 -1.244458 3.035811 0.919351 -0.857284 4.888427 1.388416 -19.477513 -4.062372 2.016030 25.224761 -3.222600 0.948600 13.247100 -0.520720 4.742414 -1.157882 -80.419195 5.171675 68.364410 82.423423 -62.558488 -52.848129 0.007483 0.979963 -13.111457 4.856003 31.881387 2.381600 -7.125000 0.000000 0.000000 -30.031800 58.373200 -10.426000 0.835454 -4.323232 -1.602069 77.424327 -7.882608 63.783864 -99.276894 61.247319 -65.085263 0.113471 -0.521995 -18.631230 -10.318847 15.865845 -2.927300 7.125000 0.000000 0.000000 11.665300 -13.563800 8.792100 
-1.416978 17.979496 -5.351754 -4.309481 2.657440 9.871682 -1.252873 0.671472 0.860971 -10.942869 -1.253344 -14.918193 0.400577 7.387185 22.083186 -0.062572 1.505190 -5.401536 0.155100 2.538000 6.995000 3.235582 0.661346 0.308458 24.599430 4.308384 -12.791430 -1.615614 -7.408845 20.280228 -0.009618 -2.492494 -8.057425 -0.121500 -2.247400 6.190000 -0.915480 1.048054 -4.905920 3.480355 1.635633 -1.004332 3.106230 0.959122 -0.778279 4.914550 1.459149 -19.433963 -4.223572 2.177413 25.558027 -3.263000 1.006400 13.387500 -0.524908 4.742533 -1.170634 -80.503488 5.026258 68.181494 82.564550 -62.564372 -52.956282 0.003017 0.987350 -13.410011 4.904480 32.250464 2.430700 -7.125000 0.000000 0.000000 -30.302300 58.693700 -10.769500 0.837423 -4.321130 -1.618533 77.342531 -7.681898 63.863184 -99.346637 61.239777 -65.142876 0.112840 -0.522065 -18.714342 -10.242140 15.941136 -2.917500 7.125000 0.000000 0.000000 11.715900 -13.495300 8.849200 
-1.398886 17.978211 -5.354818 -4.208526 2.756823 9.807256 -1.264543 0.671099 0.872894 -11.094913 -1.378427 -14.855666 0.398258 7.384256 22.085761 -0.073472 1.567132 -5.360981 0.130700 2.330200 6.419200 3.230559 0.659064 0.328353 24.448316 4.124844 -12.812870 -1.610862 -7.404381 20.258500 -0.013920 -2.448306 -8.041398 -0.108600 -2.125100 5.851600 -0.963144 1.047835 -4.997074 3.422180 1.619029 -0.780436 3.142046 0.954552 -0.707042 4.926968 1.520436 -19.396852 -4.355045 2.328321 25.905964 -3.293600 1.062600 13.534400 -0.524866 4.745873 -1.181249 -80.625840 4.859197 67.960775 82.441936 -62.554601 -52.851493 -0.006076 0.982554 -13.565242 4.572620 32.048523 2.248400 -7.125000 0.000000 0.000000 -30.447000 58.451400 -10.646500 0.843531 -4.317615 -1.634271 77.277148 -7.492522 63.842998 -99.346173 61.242851 -65.135291 0.111365 -0.518865 -18.870568 -9.794390 16.055635 -2.804400 7.125000 0.000000 0.000000 12.011200 -13.420100 9.102100 
